<svg width="6" height="10" viewBox="0 0 6 10" fill="none" xmlns="http://www.w3.org/2000/svg">
<rect width="6" height="10" fill="#E5E5E5"/>
<rect x="-278" y="-3691" width="320" height="3760" fill="#F8F8F8"/>
<rect width="40" height="40" rx="4" transform="matrix(-1 0 0 1 22 -15)" fill="white"/>
<path fill-rule="evenodd" clip-rule="evenodd" d="M1.19153 -5.20835e-08L5.41581e-08 1.23899L3.61694 5L3.82956e-07 8.76101L1.19153 10L6 5L1.19153 -5.20835e-08Z" fill="#7859CF"/>
<rect x="-278" y="-3691" width="320" height="3760" fill="#F8F8F8"/>
<rect width="40" height="40" rx="4" transform="matrix(-1 0 0 1 22 -15)" fill="white"/>
<path fill-rule="evenodd" clip-rule="evenodd" d="M1.19153 -5.20835e-08L5.41581e-08 1.23899L3.61694 5L3.82956e-07 8.76101L1.19153 10L6 5L1.19153 -5.20835e-08Z" fill="#7859CF"/>
</svg>
